<svg xmlns="http://www.w3.org/2000/svg" version="1.1" xmlns:xlink="http://www.w3.org/1999/xlink" xmlns:svgjs="http://svgjs.dev/svgjs" width="1500" height="1500" viewBox="0 0 1500 1500"><rect width="1500" height="1500" fill="#ffffff"></rect><g transform="matrix(0.6666666666666666,0,0,0.6666666666666666,249.39393939393938,614.566665144465)"><svg viewBox="0 0 396 107" data-background-color="#ffffff" preserveAspectRatio="xMidYMid meet" height="405" width="1500" xmlns="http://www.w3.org/2000/svg" xmlns:xlink="http://www.w3.org/1999/xlink"><g id="tight-bounds" transform="matrix(1,0,0,1,0.2400000000000091,0.17172899830461574)"><svg viewBox="0 0 395.52 106.65654200339078" height="106.65654200339078" width="395.52"><g><svg viewBox="0 0 584.1733628138509 157.52910297385097" height="106.65654200339078" width="395.52"><g transform="matrix(1,0,0,1,0,45.80455148692549)"><svg viewBox="0 0 395.52 65.91999999999999" height="65.91999999999999" width="395.52"><g id="textblocktransform"><svg viewBox="0 0 395.52 65.91999999999999" height="65.91999999999999" width="395.52" id="textblock"><g><svg viewBox="0 0 395.52 65.91999999999999" height="65.91999999999999" width="395.52"><g transform="matrix(1,0,0,1,0,0)"><svg width="395.52" viewBox="2.75 -35.5 214.78 35.8" height="65.91999999999999" data-palette-color="#1d597d"><g class="wordmark-text-0" data-fill-palette-color="primary" id="text-0"><path d="M22.15-33.75L22.15-33.75 21.35-30.4 18.45-31.25Q15.35-32 13.1-32L13.1-32Q7.2-32 7.2-26.75L7.2-26.75Q7.2-24.45 9-22.98 10.8-21.5 13.38-20.63 15.95-19.75 18.53-18.73 21.1-17.7 22.9-15.58 24.7-13.45 24.7-10.2L24.7-10.2Q24.7-5.25 21.65-2.48 18.6 0.3 13 0.3L13 0.3Q10.2 0.3 7.38-0.53 4.55-1.35 2.75-2.45L2.75-2.45 4-5.3Q8.55-3.2 12.63-3.2 16.7-3.2 18.82-4.85 20.95-6.5 20.95-9.65L20.95-9.65Q20.95-12.85 17.5-14.65L17.5-14.65Q15.95-15.45 14.08-16.15 12.2-16.85 10.33-17.68 8.45-18.5 6.93-19.55 5.4-20.6 4.42-22.4 3.45-24.2 3.45-26.6L3.45-26.6Q3.45-30.9 6.03-33.2 8.6-35.5 12.95-35.5 17.3-35.5 22.15-33.75ZM49.45-11.7L49.45-11.7 33.5-11.7Q33.5-6.9 35.77-4.9 38.05-2.9 41.5-2.9L41.5-2.9Q43.25-2.9 43.95-3.08 44.65-3.25 45.27-3.43 45.9-3.6 46.15-3.7L46.15-3.7Q47.4-4.05 48.3-4.35L48.3-4.35 48.9-1.45Q43.9 0.3 41.1 0.3L41.1 0.3Q35.95 0.3 32.85-2.83 29.75-5.95 29.75-12.23 29.75-18.5 32.67-22 35.6-25.5 40.07-25.5 44.55-25.5 47.05-22.6 49.55-19.7 49.55-14.75L49.55-14.75Q49.55-13.4 49.45-11.7ZM33.75-14.55L33.75-14.55 45.95-14.55Q45.95-18.25 44.65-20.25 43.35-22.25 40.12-22.25 36.9-22.25 35.4-20.1 33.9-17.95 33.75-14.55ZM71.25-3.9L71.25-3.9 72-0.95Q68 0.25 64.95 0.25L64.95 0.25Q59.6 0.25 56.9-3.25 54.2-6.75 54.2-12.9 54.2-19.05 57-22.28 59.8-25.5 65.25-25.5L65.25-25.5Q67.59-25.5 71.84-24.3L71.84-24.3 70.34-21.4Q67.59-22.2 65.4-22.2L65.4-22.2Q61.6-22.2 59.92-19.95 58.25-17.7 58.25-12.85L58.25-12.85Q58.25-3 65.3-3L65.3-3Q68.09-3 71.25-3.9ZM92.49-6.35L92.49-6.35 92.49-25 96.29-25 96.29 0 94.09 0 92.84-2.95Q88.84 0.3 85.19 0.3 81.54 0.3 79.62-1.83 77.69-3.95 77.69-7.85L77.69-7.85 77.69-25 81.44-25 81.44-8.45Q81.44-5.5 82.32-4.2 83.19-2.9 85.22-2.9 87.24-2.9 89.34-4 91.44-5.1 92.49-6.35ZM109.14-19.1L109.14-19.1 109.14 0 105.39 0 105.39-25 107.79-25 108.39-22.05Q110.79-23.95 112.39-24.73 113.99-25.5 116.04-25.5L116.04-25.5Q117.04-25.5 117.54-25.4L117.54-25.4 118.24-25.2 117.64-21.75Q116.74-22.05 115.19-22.05L115.19-22.05Q112.19-22.05 109.14-19.1ZM141.29-11.7L141.29-11.7 125.34-11.7Q125.34-6.9 127.61-4.9 129.89-2.9 133.34-2.9L133.34-2.9Q135.09-2.9 135.79-3.08 136.49-3.25 137.11-3.43 137.74-3.6 137.99-3.7L137.99-3.7Q139.24-4.05 140.14-4.35L140.14-4.35 140.74-1.45Q135.74 0.3 132.94 0.3L132.94 0.3Q127.79 0.3 124.69-2.83 121.59-5.95 121.59-12.23 121.59-18.5 124.51-22 127.44-25.5 131.91-25.5 136.39-25.5 138.89-22.6 141.39-19.7 141.39-14.75L141.39-14.75Q141.39-13.4 141.29-11.7ZM125.59-14.55L125.59-14.55 137.79-14.55Q137.79-18.25 136.49-20.25 135.19-22.25 131.96-22.25 128.74-22.25 127.24-20.1 125.74-17.95 125.59-14.55ZM173.24-35L173.24 0.05 169.14 0.05 152.29-28 152.29 0 148.39 0 148.39-35 152.29-35 169.49-5.9 169.49-35 173.24-35ZM199.68-11.7L199.68-11.7 183.73-11.7Q183.73-6.9 186.01-4.9 188.28-2.9 191.73-2.9L191.73-2.9Q193.48-2.9 194.18-3.08 194.88-3.25 195.51-3.43 196.13-3.6 196.38-3.7L196.38-3.7Q197.63-4.05 198.53-4.35L198.53-4.35 199.13-1.45Q194.13 0.3 191.33 0.3L191.33 0.3Q186.18 0.3 183.08-2.83 179.98-5.95 179.98-12.23 179.98-18.5 182.91-22 185.83-25.5 190.31-25.5 194.78-25.5 197.28-22.6 199.78-19.7 199.78-14.75L199.78-14.75Q199.78-13.4 199.68-11.7ZM183.98-14.55L183.98-14.55 196.18-14.55Q196.18-18.25 194.88-20.25 193.58-22.25 190.36-22.25 187.13-22.25 185.63-20.1 184.13-17.95 183.98-14.55ZM207.38-5.4L207.38-5.4 207.38-22 203.98-22 203.98-25 207.43-25 207.43-32.15 211.18-32.15 211.18-25 217.28-25 217.28-22 211.13-22 211.13-6.1Q211.13-2.75 214.53-2.75L214.53-2.75Q215.33-2.75 216.98-3.05L216.98-3.05 217.53-0.35Q215.48 0.3 213.31 0.3 211.13 0.3 209.26-1.03 207.38-2.35 207.38-5.4Z" fill="#1d597d" data-fill-palette-color="primary"></path></g></svg></g></svg></g></svg></g></svg></g><g transform="matrix(1,0,0,1,426.64425983999996,0)"><svg viewBox="0 0 157.52910297385097 157.52910297385097" height="157.52910297385097" width="157.52910297385097"><g><svg></svg></g><g id="icon-0"><svg viewBox="0 0 157.52910297385097 157.52910297385097" height="157.52910297385097" width="157.52910297385097"><g><path d="M0 78.765c0-43.5 35.264-78.765 78.765-78.765 43.5 0 78.765 35.264 78.764 78.765 0 43.5-35.264 78.765-78.764 78.764-43.5 0-78.765-35.264-78.765-78.764zM78.765 151.584c40.217 0 72.82-32.603 72.819-72.819 0-40.217-32.603-72.82-72.819-72.82-40.217 0-72.82 32.603-72.82 72.82 0 40.217 32.603 72.82 72.82 72.819z" data-fill-palette-color="accent" fill="#83b6b9" stroke="transparent"></path></g><g transform="matrix(1,0,0,1,49.62693677338547,35.91511808466076)"><svg viewBox="0 0 58.27522942708003 85.69886680452944" height="85.69886680452944" width="58.27522942708003"><g><svg version="1.1" xmlns="http://www.w3.org/2000/svg" xmlns:xlink="http://www.w3.org/1999/xlink" x="0" y="0" viewBox="0 0 68 100" enable-background="new 0 0 68 100" xml:space="preserve" height="85.69886680452944" width="58.27522942708003" class="icon-cg-0" data-fill-palette-color="accent" id="cg-0"><path d="M60.5 41.338V26.5C60.5 11.888 48.612 0 34 0S7.5 11.888 7.5 26.5v14.838L0 42v55l34 3 34-3V42L60.5 41.338zM15.5 40.633V26.5themeColour15.5 16.299 23.799 8 34 8s18.5 8.299 18.5 18.5v14.133L34 39 15.5 40.633z" fill="#83b6b9" data-fill-palette-color="accent"></path></svg></g></svg></g></svg></g></svg></g></svg></g><defs></defs></svg><rect width="395.52" height="106.65654200339078" fill="none" stroke="none" visibility="hidden"></rect></g></svg></g></svg>